<svg width="88" height="60" viewBox="0 0 88 60" fill="none" xmlns="http://www.w3.org/2000/svg">
<path fill-rule="evenodd" clip-rule="evenodd" d="M83.63 21.3222C83.4762 21.5709 82.9495 23.0033 82.4594 24.5045C81.2449 28.2262 78.9956 31.8089 76.4214 34.1235C74.5695 35.7885 72.4863 36.8715 67.4869 38.7691C66.9672 38.966 66.1796 40.1444 65.5531 41.6631C63.6637 46.2395 61.5435 49.3857 57.9494 52.9444C55.9411 54.9331 53.3587 56.9898 51.9507 57.7221C50.591 58.4296 49.5651 59.1479 49.6705 59.3187C50.0983 60.0105 54.9749 60.2366 58.1159 59.7099C64.0824 58.7101 69.6669 56.2056 74.5674 52.3323C83.8395 45.0027 89.1522 35.0592 87.7751 27.6102C86.9578 23.1898 84.6446 19.6807 83.63 21.3222Z" fill="#585666"/>
<path fill-rule="evenodd" clip-rule="evenodd" d="M69.2379 15.0728C68.4472 15.2736 67.6918 15.5463 67.5598 15.6783C67.4278 15.8103 67.6743 16.9604 68.1078 18.2338C68.9521 20.7152 69.2191 27.8401 68.6149 31.7669C68.381 33.2882 68.4385 33.8349 68.8327 33.8319C70.2725 33.8205 74.2508 31.4189 76.2634 29.3461C78.95 26.5798 82.2814 20.9108 82.3728 18.9513C82.433 17.6657 82.2334 17.4457 79.9263 16.2551C77.8927 15.2056 76.774 14.9347 74.0451 14.8327C72.1919 14.7635 70.029 14.8715 69.2379 15.0728Z" fill="#585666"/>
<path fill-rule="evenodd" clip-rule="evenodd" d="M56.5785 8.53747C55.8836 9.04586 55.8671 9.26412 56.4081 10.8058C56.781 11.8692 57.008 14.4007 57.0102 17.5221C57.0141 22.3407 56.9575 22.6483 55.5273 25.5815C54.3628 27.9692 52.9661 29.7179 49.0885 33.6408C43.3041 39.4927 41.6974 42.2011 41.1925 46.9505C40.8514 50.1603 41.2021 57.9944 41.7249 58.8404C42.6659 60.363 49.3604 58.0941 53.3822 54.89C56.1982 52.6469 60.0889 47.7686 61.9525 44.1445C68.4157 31.578 68.3882 17.7643 61.8867 11.2633C59.2668 8.6429 57.6027 7.78861 56.5785 8.53747Z" fill="#585666"/>
<path fill-rule="evenodd" clip-rule="evenodd" d="M47.1606 6.89618C40.4374 8.96852 34.1415 17.3977 31.2284 28.2269C30.2181 31.9812 30.0565 33.4258 30.0591 38.6822C30.0622 45.4364 30.9792 50.0581 32.9997 53.5057C34.9313 56.8018 38.6704 59.3403 39.8527 58.1579C40.1708 57.8399 40.0958 57.0754 39.6053 55.6356C38.3415 51.9261 37.793 46.6322 38.3411 43.4324C39.13 38.8247 40.5171 36.6147 46.3272 30.7061C52.2611 24.6716 53.8873 21.9528 54.634 16.8166C55.1254 13.4347 54.7198 7.03907 53.9832 6.5603C53.1907 6.04537 49.3 6.23662 47.1606 6.89618Z" fill="#585666"/>
<path fill-rule="evenodd" clip-rule="evenodd" d="M18.4904 43.0772C17.1726 43.505 13.8957 44.9883 11.2087 46.3728C8.21232 47.9172 5.56232 48.9766 4.35603 49.1126C3.27434 49.2345 2.49672 49.5081 2.62829 49.7211C2.75985 49.9342 3.08048 49.9769 3.34056 49.8161C3.60456 49.6527 3.68951 49.7242 3.53267 49.9777C2.93977 50.937 9.11758 55.2011 13.6448 56.9576C17.5799 58.484 23.6274 58.569 27.2293 57.1479C31.3871 55.5077 31.3675 55.5439 29.8549 52.2078C28.0758 48.2844 27.8736 48.2552 16.7478 50.3097C12.9251 51.0159 8.03501 51.0991 8.03501 50.4582C8.03501 50.2578 8.96598 50.0919 10.1043 50.0888C11.2422 50.0858 14.6241 49.5003 17.6191 48.7871C20.6141 48.074 24.2103 47.4885 25.6105 47.4854L28.1564 47.4802L27.8479 45.1931C27.678 43.935 27.4519 42.7587 27.3456 42.5793C26.9762 41.9563 20.8886 42.2987 18.4904 43.0772Z" fill="#B1B0B8"/>
<path fill-rule="evenodd" clip-rule="evenodd" d="M0.141035 1.6502C-0.553811 5.76482 1.42704 17.9052 3.71067 23.525C7.41361 32.6377 15.6198 40.0427 22.6841 40.6457C24.1844 40.7737 25.9314 40.958 26.5661 41.0552L27.7201 41.2325L27.7732 36.8913C27.8125 33.6514 27.646 32.2021 27.1172 31.1792C26.0202 29.0585 22.7991 25.8108 17.7884 21.7742C12.2409 17.3049 9.73426 14.9926 7.43844 12.2249C5.73683 10.1744 4.4787 8.16302 4.89735 8.16302C5.01193 8.16302 6.53797 9.59889 8.28881 11.3537C10.0392 13.1088 13.784 16.1744 16.61 18.1662C22.8213 22.5439 25.8325 25.1939 27.3977 27.661L28.5748 29.515L29.7432 25.9184C30.3858 23.9397 31.2057 21.6565 31.5646 20.8436L32.2176 19.3659L29.6448 16.8645C26.347 13.6573 21.6943 10.9463 15.5117 8.63047C5.92503 5.03948 5.03676 4.59774 2.67864 2.24921L0.42028 0L0.141035 1.6502Z" fill="#B1B0B8"/>
</svg>
