<svg width="360" height="288" viewBox="0 0 360 288" fill="none" xmlns="http://www.w3.org/2000/svg">
<g clip-path="url(#clip0_6_1534)">
<path d="M326.291 287.256L326.27 287.055C325.927 283.688 326.321 280.286 327.426 277.086C328.53 273.886 330.318 270.965 332.665 268.526C333.993 267.169 335.486 265.984 337.11 264.999L337.264 264.905L337.315 265.079C337.923 267.155 338.73 269.249 339.1 270.177L339.918 263.529L340.094 263.452C340.903 263.097 341.799 262.992 342.668 263.15C343.537 263.309 344.338 263.724 344.969 264.343C345.623 264.958 346.078 265.755 346.275 266.631C346.472 267.508 346.402 268.423 346.074 269.259C345.783 270.025 345.501 270.821 345.229 271.591C344.294 274.237 343.328 276.972 341.693 279.212C340.439 280.895 338.825 282.277 336.969 283.256C335.113 284.236 333.062 284.788 330.965 284.874L326.291 287.256Z" fill="#E3E3E5"/>
<path d="M158.307 284.874C156.21 284.788 154.158 284.236 152.302 283.256C150.446 282.277 148.832 280.895 147.578 279.212C145.944 276.972 144.977 274.237 144.042 271.591C143.77 270.821 143.489 270.025 143.197 269.259C142.869 268.423 142.799 267.508 142.997 266.631C143.194 265.755 143.649 264.958 144.303 264.343C144.933 263.724 145.735 263.309 146.603 263.15C147.472 262.992 148.369 263.097 149.177 263.452L149.353 263.529L150.171 270.177C150.541 269.249 151.349 267.155 151.956 265.079L152.007 264.905L152.162 264.999C153.785 265.984 155.279 267.169 156.606 268.526C158.953 270.965 160.741 273.886 161.846 277.086C162.95 280.286 163.345 283.688 163.001 287.055L162.98 287.256L158.307 284.874Z" fill="#F0F0F2"/>
<path d="M105.09 148.645C105.09 148.645 102.919 131.094 98.0271 125.746L86.5144 130.205L95.605 153.402L114 176.605C114.092 177.465 114.411 178.286 114.923 178.984C115.436 179.682 116.124 180.231 116.917 180.577C117.711 180.923 118.581 181.053 119.441 180.953C120.301 180.853 121.119 180.528 121.813 180.01C122.506 179.492 123.05 178.8 123.39 178.004C123.729 177.207 123.852 176.335 123.745 175.476C123.639 174.617 123.307 173.802 122.784 173.113C122.26 172.423 121.563 171.885 120.764 171.552L105.09 148.645Z" fill="#A0616A"/>
<path d="M46.4103 158.426C46.4103 158.426 54.285 142.591 53.1571 135.432L41.0954 132.798L35.8759 157.159L38.4114 186.66C38.0137 187.429 37.8265 188.289 37.8688 189.154C37.9112 190.018 38.1815 190.856 38.6524 191.582C39.1233 192.309 39.778 192.897 40.55 193.289C41.322 193.68 42.1838 193.861 43.048 193.811C43.9122 193.762 44.748 193.485 45.4704 193.008C46.1929 192.532 46.7764 191.872 47.1617 191.097C47.5469 190.322 47.7202 189.459 47.664 188.595C47.6077 187.731 47.3239 186.898 46.8414 186.179L46.4103 158.426Z" fill="#A0616A"/>
<path d="M60.3401 279.766H66.0462L68.7605 257.756L60.339 257.757L60.3401 279.766Z" fill="#9E616A"/>
<path d="M60.1392 285.719L77.686 285.718V285.496C77.6858 283.685 76.9662 281.948 75.6855 280.667C74.4047 279.386 72.6676 278.667 70.8563 278.667L67.6507 276.235L61.6706 278.667L60.1389 278.667L60.1392 285.719Z" fill="#2F2E41"/>
<path d="M75.973 276.537L81.5387 277.795L89.0383 256.925L80.8234 255.069L75.973 276.537Z" fill="#9E616A"/>
<path d="M74.465 282.299L91.5803 286.166L91.6292 285.95C92.0284 284.183 91.7094 282.33 90.7424 280.799C89.7754 279.267 88.2397 278.182 86.473 277.783L83.8822 274.705L77.5132 275.759L76.0191 275.421L74.465 282.299Z" fill="#2F2E41"/>
<path d="M101.676 219.788C98.2877 230.583 89.6204 259.237 89.6204 259.237C89.6204 259.237 82.2435 261.079 79.9162 259.237C77.589 257.396 80.4871 251.245 80.4871 251.245C78.9529 244.355 82.4052 237.391 82.6292 230.712C82.1638 227.908 84.6312 225.502 84.8571 222.828C83.226 221.587 75.2908 202.108 73.6726 196.666C74.5042 213.25 72.4954 238.116 70.212 254.1C69.1312 261.665 67.6243 259.454 59.937 259.808C56.5094 258.79 57.0828 251.245 57.0828 251.245V244.966C55.4166 237.935 55.3946 236.416 55.9412 232.979C55.6907 229.33 52.5502 191.608 49.7635 178.841C47.9064 168.67 70.6666 166.432 77.2122 164.006C88.1345 158.744 86.2911 166.226 92.0432 173.117C97.5894 184.997 100.856 206.211 101.676 219.788Z" fill="#2F2E41"/>
<path d="M79.7639 109.502L74.2417 101.609H64.5375L55.975 109.6L55.2551 180.605L94.0034 184.949L79.7639 109.502Z" fill="#E38035"/>
<path d="M75.9244 103.464L91.2996 110.5L94.2207 155.838C94.2207 155.838 96.6862 161.661 96.8825 162.235C97.0885 162.836 97.4989 165.806 97.3212 166.3C96.776 167.893 96.4999 169.566 96.5041 171.25C96.6373 172.543 98.0176 174.849 98.3785 176.097C98.6273 176.958 97.0749 179.813 97.0749 179.813C97.712 180.772 98.1306 181.859 98.3013 182.997C98.472 184.135 98.3906 185.297 98.0628 186.401L97.6458 187.805L89.6541 186.663L86.2085 169.722L85.8448 167.934L85.4685 166.084L85.1744 164.638L84.913 163.353L84.6936 162.274L75.9244 103.464Z" fill="#3F3D56"/>
<path d="M81.5955 112.783L91.2996 110.5C95.9816 115.945 99.7861 126.683 102.786 136.467C102.999 137.163 102.832 138.125 103.414 138.539C104.472 139.291 105.104 140.199 104.338 141.656C104.046 142.212 104.689 142.853 104.86 143.437C105.003 143.928 104.808 144.747 105.283 144.888C106.641 145.292 106.706 146.453 106.175 147.924L94.7579 153.633L94.4325 153.107L93.1503 151.036L87.6325 142.126L81.5955 112.783Z" fill="#3F3D56"/>
<path d="M62.254 103.892L53.6246 111.642C53.6246 111.642 51.6054 144.452 50.2665 156.98C50.2096 157.512 50.9526 158.784 50.8956 159.317L50.5613 162.445L50.3097 164.799C50.2193 165.646 49.1248 174.105 49.1248 174.105L47.4127 175.246C46.6846 178.513 47.0917 181.93 48.5668 184.935L49.6957 187.234L62.1871 185.85L62.254 103.892Z" fill="#3F3D56"/>
<path d="M57.1085 116.503L53.6246 111.642L42.7787 118.492C40.3854 125.113 37.7605 136.665 36.3108 146.711C36.278 146.938 36.4315 147.322 36.2142 147.391C35.4332 147.639 35.1972 148.03 36.0355 148.709C36.1331 148.831 36.2052 148.971 36.2476 149.121C36.29 149.271 36.302 149.428 36.2826 149.582C36.2633 149.737 36.2131 149.886 36.1351 150.021C36.057 150.156 35.9527 150.274 35.8282 150.368C34.9088 150.805 34.2021 151.237 35.6817 151.659C36.7222 151.957 35.4678 153.777 35.3911 154.774L47.9494 157.628C49.097 157.298 49.3146 156.626 48.7034 155.649C49.6492 155.364 50.0074 154.856 49.3455 153.964L49.6561 153.148C50.711 152.986 50.6963 152.548 50.1075 151.964L50.5356 150.84L52.5161 145.641L57.1085 116.503Z" fill="#3F3D56"/>
<path d="M68.0193 99.383C75.0679 99.383 80.782 93.669 80.782 86.6203C80.782 79.5717 75.0679 73.8576 68.0193 73.8576C60.9706 73.8576 55.2566 79.5717 55.2566 86.6203C55.2566 93.669 60.9706 99.383 68.0193 99.383Z" fill="#A0616A"/>
<path d="M55.0952 94.844C55.0952 94.844 57.9061 95.6147 59.5419 96.0438C59.4573 94.8265 58.9302 93.687 58.6625 92.4963C58.3948 91.3055 58.4529 89.9051 59.3378 89.0643C60.2228 88.2235 62.0659 88.5511 62.2085 89.7609C62.9572 88.16 63.7074 86.5562 64.4591 84.9494C66.6027 89.3615 70.9849 85.6016 75.7632 86.7164C78.2008 87.2907 81.2559 87.044 82.5437 84.8961C81.82 84.2887 81.2102 83.5572 80.7431 82.736C81.4858 82.9539 82.2586 83.0518 83.0322 83.026C83.0145 82.2577 82.8126 81.5049 82.4433 80.8309C82.0741 80.1569 81.5484 79.5815 80.9104 79.153C80.2232 78.7036 81.9242 77.1049 81.3244 76.5421C80.0943 75.3935 79.2687 76.1735 78.542 74.6594C78.0734 73.7232 77.3514 72.9373 76.4582 72.3912C75.5649 71.845 74.5363 71.5606 73.4894 71.5703C71.4008 71.6193 67.6582 71.5991 66.8479 73.5233C64.2653 71.8327 60.6702 72.3103 58.1458 74.0839C56.0475 75.5523 53.6596 79.9908 53.1326 82.4964C52.6055 85.002 53.767 92.6603 55.0952 94.844Z" fill="#2F2E41"/>
<path d="M113.246 151.211C113.028 151.211 112.812 151.256 112.612 151.344C112.412 151.432 112.232 151.56 112.085 151.72C111.937 151.881 111.824 152.07 111.753 152.277C111.682 152.483 111.654 152.702 111.672 152.919C114.083 159.15 113.756 166.363 113.448 174.524C113.482 174.918 113.663 175.285 113.954 175.553C114.245 175.821 114.626 175.971 115.022 175.973H125.208C125.604 175.971 125.985 175.821 126.276 175.553C126.567 175.285 126.748 174.918 126.782 174.524C125.955 166.595 126.401 159.32 128.558 152.919C128.576 152.702 128.548 152.483 128.477 152.277C128.406 152.07 128.293 151.881 128.145 151.72C127.998 151.56 127.818 151.432 127.618 151.344C127.418 151.256 127.202 151.211 126.984 151.211H113.246Z" fill="#E38035"/>
<path d="M129.374 154.091L128.614 150.481C128.544 150.152 128.364 149.858 128.104 149.646C127.843 149.435 127.518 149.32 127.183 149.32H122.438C122.42 149.257 122.389 149.198 122.349 149.146L121.822 148.487C121.772 148.425 121.709 148.375 121.638 148.34C121.566 148.306 121.487 148.288 121.408 148.288H118.478C118.399 148.288 118.32 148.306 118.249 148.34C118.177 148.375 118.114 148.425 118.064 148.487L117.537 149.146C117.497 149.198 117.467 149.257 117.448 149.32H113.047C112.712 149.32 112.387 149.435 112.126 149.646C111.866 149.858 111.686 150.152 111.617 150.481L110.857 154.091C110.812 154.304 110.815 154.524 110.866 154.735C110.917 154.947 111.015 155.144 111.152 155.313C111.289 155.482 111.462 155.618 111.659 155.712C111.855 155.805 112.07 155.854 112.287 155.854C117.141 158.344 122.351 158.405 127.943 155.854C128.16 155.854 128.375 155.805 128.572 155.712C128.768 155.618 128.941 155.482 129.078 155.313C129.215 155.144 129.313 154.947 129.364 154.735C129.415 154.524 129.418 154.304 129.374 154.091Z" fill="#3F3D56"/>
<path d="M258.587 155.916C258.338 154.965 257.454 152.061 256.33 153.344C256.163 153.534 256.031 152.922 255.877 152.697C255.609 152.308 255.446 150.646 255.162 150.208C254.585 149.317 253.869 149.58 253.282 148.546C251.604 145.59 250.038 142.214 249.454 139.362C247.668 130.629 250.128 118.687 250.128 118.687L249.332 101.677L243.519 101.482V101.099C243.519 100.332 243.214 99.5953 242.672 99.0524C242.129 98.5095 241.392 98.2045 240.625 98.2045H229.554C228.819 98.2049 228.111 98.4853 227.575 98.9889C227.039 99.4924 226.715 100.181 226.669 100.915L222.11 100.762L214.216 125.843C214.216 125.843 217.9 135.311 219.2 144.499C219.553 146.977 219.638 149.486 219.454 151.982C219.278 154.513 218.783 157.012 217.979 159.418C217.979 159.418 251.468 166.432 258.017 159.912C258.017 159.912 259.035 157.625 258.587 155.916Z" fill="#3F3D56"/>
<path d="M301.468 157.744H293.556V30.3912C293.008 29.9859 292.454 29.5863 291.895 29.1925C291.781 29.1183 291.672 29.0383 291.564 28.9641C288.194 26.6064 284.676 24.4671 281.032 22.5594C279.402 20.375 277.616 18.3109 275.689 16.383C270.008 10.7029 263.17 6.31285 255.641 3.51153C248.112 0.710212 240.068 -0.436705 232.055 0.148783C224.043 0.734271 216.251 3.03843 209.209 6.90455C202.167 10.7707 196.04 16.108 191.245 22.5537C188.779 23.8437 186.378 25.2366 184.041 26.7322C183.819 26.8749 183.596 27.0176 183.379 27.1603C183.374 27.166 183.368 27.166 183.362 27.1717C182.958 27.4364 182.626 27.7981 182.396 28.2238C182.167 28.6494 182.048 29.1257 182.049 29.6092V157.744H170.804C165.838 157.744 161.551 161.803 161.573 166.769C161.577 167.902 161.796 169.024 162.219 170.074C162.381 170.488 162.578 170.887 162.806 171.268C163.098 171.767 163.436 172.237 163.817 172.672C164.658 173.632 165.695 174.4 166.858 174.927C168.02 175.454 169.282 175.726 170.558 175.726H301.713C304.09 175.723 306.37 174.779 308.053 173.101C309.737 171.423 310.688 169.146 310.698 166.769C310.721 161.803 306.434 157.744 301.468 157.744ZM260.659 157.744H214.61L208.262 70.0357H267.007L260.659 157.744Z" fill="#706E7A"/>
<path d="M268.084 125.167L287.763 107.634L293.569 110.51L269.967 135.266L268.084 125.167Z" fill="#FFB6B6"/>
<path d="M246.081 103.419L249.332 101.677C249.332 101.677 257.341 100.994 260.61 110.402L269.278 123.495L283.328 111.318L289.417 115.533L271.709 136.667L264.347 137.607L248.423 117L246.081 103.419Z" fill="#3F3D56"/>
<path d="M251.38 88.3694C249.603 100.412 240.76 101.681 234.285 95.3945C227.512 88.8176 217.191 96.6464 217.191 88.3694C217.191 80.0924 220.93 65.4208 234.285 65.4208C248.101 65.4208 252.588 80.1811 251.38 88.3694Z" fill="#2F2E41"/>
<path d="M234.228 95.3806C240.581 95.3806 245.731 90.2306 245.731 83.8778C245.731 77.5249 240.581 72.3749 234.228 72.3749C227.875 72.3749 222.725 77.5249 222.725 83.8778C222.725 90.2306 227.875 95.3806 234.228 95.3806Z" fill="#FFB6B6"/>
<path d="M220.938 82.7494H225.487L227.494 77.1293L227.896 82.7494H230.07L231.241 79.471L231.475 82.7494C234.793 85.7482 240.936 84.651 247.633 82.7494C247.633 81.1503 247.318 79.5669 246.706 78.0895C246.094 76.6122 245.197 75.2698 244.067 74.1391C242.936 73.0083 241.593 72.1114 240.116 71.4995C238.639 70.8875 237.055 70.5726 235.456 70.5726H233.115C231.515 70.5726 229.932 70.8875 228.455 71.4995C226.977 72.1114 225.635 73.0083 224.504 74.1391C223.374 75.2698 222.477 76.6122 221.865 78.0895C221.253 79.5669 220.938 81.1503 220.938 82.7494Z" fill="#2F2E41"/>
<path d="M199.775 165.221C200.685 165.219 201.575 164.951 202.335 164.45C203.096 163.949 203.693 163.238 204.055 162.402C204.417 161.567 204.527 160.644 204.372 159.747C204.217 158.85 203.804 158.018 203.183 157.352L209.586 140.444L210.897 134.792C210.17 134.336 209.349 134.05 208.496 133.958C207.642 133.866 206.779 133.968 205.971 134.259C205.164 134.549 204.433 135.02 203.833 135.634C203.234 136.249 202.783 136.992 202.513 137.807L195.842 157.969C195.378 158.677 195.113 159.497 195.078 160.342C195.042 161.188 195.236 162.027 195.64 162.771C196.043 163.515 196.641 164.136 197.369 164.567C198.097 164.999 198.929 165.225 199.775 165.221Z" fill="#FFB6B6"/>
<path d="M277.304 90.8318C277.085 90.8318 276.869 90.8771 276.67 90.9647C276.47 91.0523 276.29 91.1804 276.142 91.3409C275.994 91.5014 275.881 91.6909 275.81 91.8973C275.739 92.1037 275.712 92.3225 275.73 92.54C277.502 100.182 278.253 107.443 277.506 114.144C277.54 114.539 277.721 114.906 278.012 115.174C278.303 115.442 278.684 115.592 279.079 115.594H289.266C289.662 115.592 290.043 115.442 290.334 115.174C290.625 114.906 290.805 114.539 290.84 114.144C290.273 106.894 290.872 99.6003 292.616 92.54C292.633 92.3225 292.606 92.1037 292.535 91.8973C292.464 91.6909 292.351 91.5014 292.203 91.3409C292.055 91.1804 291.876 91.0523 291.676 90.9647C291.476 90.8771 291.26 90.8318 291.042 90.8318H277.304Z" fill="#E38035"/>
<path d="M293.431 93.7114L292.671 90.1013C292.602 89.773 292.422 89.4784 292.162 89.267C291.901 89.0557 291.576 88.9403 291.24 88.9403H286.496C286.477 88.8773 286.447 88.8184 286.407 88.7666L285.88 88.1076C285.83 88.0455 285.767 87.9953 285.695 87.9609C285.623 87.9264 285.545 87.9085 285.465 87.9085H282.536C282.456 87.9085 282.378 87.9264 282.306 87.9609C282.235 87.9953 282.172 88.0455 282.122 88.1076L281.595 88.7666C281.554 88.8184 281.524 88.8773 281.506 88.9403H277.105C276.77 88.9403 276.444 89.0557 276.184 89.267C275.923 89.4784 275.743 89.773 275.674 90.1013L274.914 93.7114C274.869 93.9243 274.873 94.1445 274.924 94.356C274.975 94.5675 275.072 94.7649 275.21 94.9339C275.347 95.1028 275.52 95.2391 275.716 95.3326C275.913 95.4262 276.127 95.4748 276.345 95.4748C281.593 97.6624 286.817 98.0942 292 95.4748C292.218 95.4748 292.433 95.4262 292.629 95.3326C292.826 95.2391 292.999 95.1028 293.136 94.9339C293.273 94.7649 293.371 94.5675 293.422 94.356C293.473 94.1445 293.476 93.9243 293.431 93.7114Z" fill="#3F3D56"/>
<path d="M231.049 21.9381C230.902 21.9381 230.758 21.9684 230.624 22.0272C230.49 22.0859 230.37 22.1717 230.27 22.2793C230.171 22.3868 230.096 22.5138 230.048 22.6521C230.001 22.7904 229.982 22.937 229.994 23.0828L231.184 37.56C231.207 37.8242 231.328 38.0702 231.523 38.2499C231.718 38.4296 231.973 38.53 232.239 38.5313H239.065C239.33 38.53 239.585 38.4296 239.78 38.2499C239.975 38.0702 240.096 37.8242 240.119 37.56L241.309 23.0828C241.321 22.937 241.303 22.7904 241.255 22.6521C241.208 22.5138 241.132 22.3868 241.033 22.2793C240.934 22.1717 240.814 22.0859 240.68 22.0272C240.546 21.9684 240.401 21.9381 240.255 21.9381H231.049Z" fill="#E38035"/>
<path d="M241.856 23.8677L241.347 21.4486C241.3 21.2286 241.18 21.0312 241.005 20.8895C240.831 20.7479 240.613 20.6706 240.388 20.6706H237.209C237.196 20.6284 237.176 20.5889 237.149 20.5541L236.796 20.1125C236.762 20.0709 236.72 20.0373 236.672 20.0143C236.624 19.9912 236.571 19.9792 236.518 19.9792H234.555C234.502 19.9792 234.449 19.9912 234.401 20.0143C234.353 20.0373 234.311 20.0709 234.278 20.1125L233.924 20.5541C233.897 20.5889 233.877 20.6284 233.865 20.6706H230.916C230.691 20.6706 230.473 20.7479 230.298 20.8895C230.124 21.0312 230.003 21.2286 229.957 21.4486L229.448 23.8677C229.418 24.0104 229.42 24.1579 229.454 24.2997C229.488 24.4414 229.554 24.5737 229.646 24.6869C229.737 24.8001 229.853 24.8914 229.985 24.9541C230.117 25.0168 230.261 25.0494 230.406 25.0494H240.897C241.043 25.0494 241.187 25.0168 241.319 24.9541C241.45 24.8914 241.566 24.8001 241.658 24.6869C241.75 24.5737 241.815 24.4414 241.85 24.2997C241.884 24.1579 241.886 24.0104 241.856 23.8677Z" fill="#CCCCCC"/>
<path d="M235.788 46.8084C232.062 46.8084 228.42 45.7036 225.322 43.6337C222.224 41.5638 219.81 38.6218 218.384 35.1797C216.958 31.7376 216.585 27.95 217.312 24.2959C218.039 20.6417 219.833 17.2852 222.468 14.6507C225.102 12.0162 228.459 10.2221 232.113 9.4953C235.767 8.76845 239.554 9.14149 242.997 10.5673C246.439 11.993 249.381 14.4075 251.451 17.5053C253.52 20.6031 254.625 24.2452 254.625 27.9709C254.62 32.9652 252.633 37.7533 249.102 41.2848C245.57 44.8163 240.782 46.8028 235.788 46.8084ZM235.788 10.275C232.288 10.275 228.867 11.3128 225.956 13.2573C223.046 15.2017 220.778 17.9655 219.439 21.199C218.1 24.4325 217.749 27.9905 218.432 31.4232C219.115 34.8558 220.8 38.0089 223.275 40.4838C225.75 42.9586 228.903 44.6439 232.335 45.3267C235.768 46.0095 239.326 45.6591 242.56 44.3197C245.793 42.9804 248.557 40.7123 250.501 37.8022C252.446 34.8921 253.484 31.4708 253.484 27.9709C253.478 23.2793 251.612 18.7814 248.295 15.4639C244.977 12.1464 240.479 10.2803 235.788 10.275Z" fill="#F2F2F2"/>
<path d="M293.442 286.559H180.988L181.113 273.494L181.125 272.358L182.129 170.109H292.871L293.014 199.647L293.02 200.784L293.442 286.559Z" fill="#706E7A"/>
<path d="M358.45 287.106L0.679663 287.281C0.49974 287.281 0.327361 287.209 0.20032 287.082C0.07328 286.954 0.00195312 286.782 0.00195312 286.602C0.00195312 286.422 0.07328 286.249 0.20032 286.122C0.327361 285.994 0.49974 285.923 0.679663 285.922L358.45 285.747C358.631 285.747 358.803 285.818 358.931 285.946C359.058 286.073 359.13 286.246 359.13 286.426C359.13 286.607 359.058 286.779 358.931 286.907C358.803 287.034 358.631 287.106 358.45 287.106Z" fill="#CACACA"/>
<path d="M175.467 134.657C175.249 134.657 175.033 134.702 174.833 134.79C174.633 134.877 174.453 135.005 174.306 135.166C174.158 135.326 174.045 135.516 173.974 135.722C173.903 135.929 173.875 136.148 173.893 136.365C175.506 143.965 176.215 151.212 175.669 157.969C175.703 158.364 175.884 158.731 176.175 158.999C176.466 159.267 176.847 159.417 177.243 159.419H187.43C187.825 159.417 188.206 159.267 188.497 158.999C188.788 158.731 188.969 158.364 189.003 157.969C188.18 151.154 189.05 143.876 190.779 136.365C190.797 136.148 190.769 135.929 190.698 135.722C190.627 135.516 190.514 135.326 190.367 135.166C190.219 135.005 190.039 134.877 189.839 134.79C189.639 134.702 189.423 134.657 189.205 134.657H175.467Z" fill="#E38035"/>
<path d="M191.594 137.536L190.834 133.926C190.765 133.598 190.585 133.303 190.325 133.092C190.064 132.881 189.739 132.765 189.404 132.765H184.659C184.641 132.702 184.61 132.643 184.57 132.592L184.043 131.933C183.993 131.871 183.93 131.82 183.858 131.786C183.787 131.751 183.708 131.734 183.629 131.734H180.699C180.62 131.734 180.541 131.751 180.47 131.786C180.398 131.82 180.335 131.871 180.285 131.933L179.758 132.592C179.718 132.643 179.687 132.702 179.669 132.765H175.268C174.933 132.765 174.608 132.881 174.347 133.092C174.087 133.303 173.907 133.598 173.838 133.926L173.078 137.536C173.033 137.749 173.036 137.97 173.087 138.181C173.138 138.393 173.236 138.59 173.373 138.759C173.51 138.928 173.683 139.064 173.879 139.158C174.076 139.251 174.291 139.3 174.508 139.3C179.608 140.875 185.064 140.875 190.164 139.3C190.381 139.3 190.596 139.251 190.793 139.158C190.989 139.064 191.162 138.928 191.299 138.759C191.436 138.59 191.534 138.393 191.585 138.181C191.636 137.97 191.639 137.749 191.594 137.536Z" fill="#3F3D56"/>
<path d="M235.046 217.488H182.7V218.63H235.046V217.488Z" fill="#F2F2F2"/>
<path d="M292.7 175.246H240.354V176.388H292.7V175.246Z" fill="#F2F2F2"/>
<path d="M263.588 254.021H211.242V255.163H263.588V254.021Z" fill="#F2F2F2"/>
<path d="M293.02 200.934H268.325V199.792H293.014L293.02 200.934Z" fill="#F2F2F2"/>
<path d="M187.986 167.255H163.292V166.113H187.98L187.986 167.255Z" fill="#F2F2F2"/>
<path d="M207.394 54.8001H182.7V53.6584H207.389L207.394 54.8001Z" fill="#F2F2F2"/>
<path d="M290.166 31.3959H265.471V30.2542H290.16L290.166 31.3959Z" fill="#F2F2F2"/>
<path d="M265.049 54.8001H240.354V53.6584H265.043L265.049 54.8001Z" fill="#F2F2F2"/>
<path d="M196.8 272.859V274.001H181.113L181.125 272.859H196.8Z" fill="#F2F2F2"/>
<path d="M291.495 114.801C294.081 114.801 296.178 112.705 296.178 110.118C296.178 107.531 294.081 105.435 291.495 105.435C288.908 105.435 286.812 107.531 286.812 110.118C286.812 112.705 288.908 114.801 291.495 114.801Z" fill="#FFB6B6"/>
<path d="M224.069 103.887L222.11 100.762C222.11 100.762 215.736 99.1861 213.112 103.41C210.488 107.634 196.366 153.062 196.366 153.062L204.358 155.916L219.771 120.663L224.069 103.887Z" fill="#3F3D56"/>
</g>
<defs>
<clipPath id="clip0_6_1534">
<rect width="359.13" height="287.281" fill="white"/>
</clipPath>
</defs>
</svg>
